HIERARCHY
ROOT Hips
{
	OFFSET 0.000000 0.000000 0.000000
	CHANNELS 6 Xposition Yposition Zposition Zrotation Yrotation Xrotation 
	JOINT LeftUpLeg_virtual
	{
		OFFSET 0.000000 0.000000 0.000000
		CHANNELS 3 Zrotation Yrotation Xrotation
		JOINT LeftUpLeg
		{
			OFFSET 8.479694 -4.795517 -0.379053
			CHANNELS 3 Zrotation Yrotation Xrotation
			JOINT LeftLeg
			{
				OFFSET 0.485052 -32.551468 0.112863
				CHANNELS 3 Zrotation Yrotation Xrotation
				JOINT LeftFoot
				{
					OFFSET 0.438033 -32.635670 -3.012641
					CHANNELS 3 Zrotation Yrotation Xrotation
					JOINT LeftToeBase
					{
						OFFSET 0.970169 -13.225353 11.864223
						CHANNELS 3 Zrotation Yrotation Xrotation
						End Site
						{
							OFFSET 0.000000 0.000000 0.000000
						}
					}
				}
			}
		}
	}
	JOINT RightUpLeg_virtual
	{
		OFFSET 0.000000 0.000000 0.000000
		CHANNELS 3 Zrotation Yrotation Xrotation
		JOINT RightUpLeg
		{
			OFFSET -8.479694 -4.795517 -0.379053
			CHANNELS 3 Zrotation Yrotation Xrotation
			JOINT RightLeg
			{
				OFFSET -0.484100 -32.551483 0.112903
				CHANNELS 3 Zrotation Yrotation Xrotation
				JOINT RightFoot
				{
					OFFSET -0.438985 -32.635651 -3.012681
					CHANNELS 3 Zrotation Yrotation Xrotation
					JOINT RightToeBase
					{
						OFFSET -0.970169 -13.225354 11.864223
						CHANNELS 3 Zrotation Yrotation Xrotation
						End Site
						{
							OFFSET 0.000000 0.000000 0.000000
						}
					}
				}
			}
		}
	}
	JOINT Spine_virtual
	{
		OFFSET 0.000000 0.000000 0.000000
		CHANNELS 3 Zrotation Yrotation Xrotation
		JOINT Spine
		{
			OFFSET 0.000000 7.722015 1.166203
			CHANNELS 3 Zrotation Yrotation Xrotation
			JOINT Spine1
			{
				OFFSET 0.000000 12.024086 0.248766
				CHANNELS 3 Zrotation Yrotation Xrotation
				JOINT Spine2
				{
					OFFSET -0.000000 11.503036 -0.491240
					CHANNELS 3 Zrotation Yrotation Xrotation
					JOINT Neck_virtual
					{
						OFFSET 0.000000 0.000000 0.000000
						CHANNELS 3 Zrotation Yrotation Xrotation
						JOINT Neck
						{
							OFFSET 0.000000 18.430687 -3.123054
							CHANNELS 3 Zrotation Yrotation Xrotation
							JOINT Head
							{
								OFFSET -0.000000 9.051071 1.034021
								CHANNELS 3 Zrotation Yrotation Xrotation
								End Site
								{
									OFFSET 0.000000 0.000000 0.000000
								}
							}
						}
					}
					JOINT LeftShoulder_virtual
					{
						OFFSET 0.000000 0.000000 0.000000
						CHANNELS 3 Zrotation Yrotation Xrotation
						JOINT LeftShoulder
						{
							OFFSET 6.197824 13.665230 -4.064723
							CHANNELS 3 Zrotation Yrotation Xrotation
							JOINT LeftArm
							{
								OFFSET 7.778132 -0.187073 -1.709282
								CHANNELS 3 Zrotation Yrotation Xrotation
								JOINT LeftForeArm
								{
									OFFSET 21.954697 0.000000 -2.041093
									CHANNELS 3 Zrotation Yrotation Xrotation
									JOINT LeftHand
									{
										OFFSET 22.992908 0.000000 -0.870901
										CHANNELS 3 Zrotation Yrotation Xrotation
										End Site
										{
											OFFSET 0.000000 0.000000 0.000000
										}
									}
								}
							}
						}
					}
					JOINT RightShoulder_virtual
					{
						OFFSET 0.000000 0.000000 0.000000
						CHANNELS 3 Zrotation Yrotation Xrotation
						JOINT RightShoulder
						{
							OFFSET -6.197824 13.665230 -4.064723
							CHANNELS 3 Zrotation Yrotation Xrotation
							JOINT RightArm
							{
								OFFSET -7.778132 -0.187073 -1.709282
								CHANNELS 3 Zrotation Yrotation Xrotation
								JOINT RightForeArm
								{
									OFFSET -21.954697 0.000000 -2.041093
									CHANNELS 3 Zrotation Yrotation Xrotation
									JOINT RightHand
									{
										OFFSET -22.992908 0.000000 -0.870901
										CHANNELS 3 Zrotation Yrotation Xrotation
										End Site
										{
											OFFSET 0.000000 0.000000 0.000000
										}
									}
								}
							}
						}
					}
				}
			}
		}
	}
}
MOTION
Frames: 14
Frame Time: 0.033333
-3.483284 80.642227 41.858059 -179.933247 2.684900 179.986891 -3.991659 -1.166255 11.455516 -5.040873 -0.892888 -25.084864 8.521104 6.089377 26.861169 2.990985 -7.488082 -12.539672 0.000000 0.000000 0.000000 -0.697862 -1.797357 11.514301 -0.015784 -2.125815 -26.333750 -0.656371 4.246493 32.469719 6.451307 3.298527 -11.636149 0.000000 0.000000 0.000000 2.343113 1.152430 0.271129 -5.278326 0.912594 -0.559125 -0.557760 -2.965740 2.691570 -0.004614 -0.000305 -0.020646 -0.751037 -2.119974 3.985428 -5.387772 4.309309 -9.834729 0.000000 0.000000 0.000000 0.819029 -1.316019 1.173213 1.199776 4.829368 -6.596989 0.291012 -16.914689 -52.811501 -0.986067 -33.211426 -2.964658 0.000000 0.000000 0.000000 -3.128742 -0.185245 0.503851 20.460230 -6.881159 -13.041903 2.729822 3.648306 -62.105018 -0.275234 10.205364 2.934681 0.000000 0.000000 0.000000 
-3.462541 80.637878 41.855438 179.994664 2.680407 179.980047 -3.984586 -1.126279 11.417008 -5.233848 -0.713325 -25.126036 8.489929 6.112115 26.786817 3.190605 -7.193490 -12.487900 0.000000 0.000000 0.000000 -0.725556 -1.884145 11.501727 0.027562 -2.263604 -26.383226 -0.660069 4.246692 32.361296 6.384964 3.239193 -11.467045 0.000000 0.000000 0.000000 2.292534 1.149314 0.319471 -5.315138 0.926487 -0.549953 -0.569820 -2.957872 2.674469 -0.023073 -0.002878 -0.005360 -0.698871 -2.047709 3.976493 -5.360215 4.324434 -9.777408 0.000000 0.000000 0.000000 0.868132 -1.314601 1.139829 1.192137 4.860842 -6.606504 0.250675 -16.808788 -52.894614 -1.146744 -33.301649 -2.853005 0.000000 0.000000 0.000000 -3.065779 -0.196945 0.473253 20.529744 -6.899905 -13.016502 2.776292 3.659424 -61.949385 -0.300634 10.444321 2.900311 0.000000 0.000000 0.000000 
-3.440407 80.622787 41.817146 179.998830 2.641425 179.981222 -3.994859 -1.182922 11.436931 -5.217541 -0.761619 -25.156874 8.544147 6.071895 26.864891 3.177573 -7.158464 -12.573011 0.000000 0.000000 0.000000 -0.769047 -1.934595 11.513798 0.102524 -2.359181 -26.451571 -0.646422 4.294717 32.500390 6.348144 3.249605 -11.517196 0.000000 0.000000 0.000000 2.276707 1.009183 0.335884 -5.310505 0.792141 -0.570852 -0.564367 -2.869325 2.644408 -0.021649 0.071275 -0.026064 -0.686403 -2.034562 3.983844 -5.348932 4.326665 -9.806293 0.000000 0.000000 0.000000 0.880360 -1.285278 1.151119 1.088596 4.945386 -6.543635 0.224769 -16.654156 -52.720529 -1.097330 -33.188695 -3.067160 0.000000 0.000000 0.000000 -3.040432 -0.174483 0.526028 20.607791 -6.884012 -13.095062 2.863172 3.680854 -62.094001 -0.201246 10.705312 2.946149 0.000000 0.000000 0.000000 
-3.409958 80.605728 41.756313 -179.894629 2.672921 179.984118 -4.000057 -1.199747 11.474732 -5.127132 -0.798969 -25.204940 8.647367 6.103443 27.003165 3.095156 -7.204128 -12.720289 0.000000 0.000000 0.000000 -0.677801 -1.904850 11.554005 0.098352 -2.362264 -26.483010 -0.508452 4.319192 32.589479 6.282677 3.220810 -11.556896 0.000000 0.000000 0.000000 2.316993 1.116144 0.360001 -5.238814 0.838006 -0.637985 -0.544183 -2.967491 2.630926 0.008493 -0.024099 -0.031133 -0.759409 -2.086416 3.965184 -5.341868 4.252593 -9.852743 0.000000 0.000000 0.000000 0.783177 -1.251605 1.178327 0.928545 5.049139 -6.502711 0.286787 -16.487433 -52.676188 -1.071066 -32.938102 -2.983385 0.000000 0.000000 0.000000 -3.134100 -0.124605 0.531053 20.692922 -6.867333 -13.082825 3.027071 3.600766 -62.059317 -0.165606 10.960852 2.883312 0.000000 0.000000 0.000000 
-3.385507 80.589218 41.691868 179.998243 2.771716 179.979323 -4.031876 -1.199524 11.531781 -5.215425 -0.920816 -25.207192 8.617756 5.990642 27.082270 3.329234 -7.109831 -12.770440 0.000000 0.000000 0.000000 -0.784561 -1.857978 11.616768 0.154488 -2.538188 -26.509180 -0.593025 4.200260 32.623190 6.417872 3.420758 -11.612916 0.000000 0.000000 0.000000 2.241661 1.174570 0.421357 -5.221094 0.779288 -0.724140 -0.599069 -2.920185 2.651739 -0.027574 -0.007526 -0.012870 -0.723435 -2.020972 3.979948 -5.284713 4.135730 -9.811769 0.000000 0.000000 0.000000 0.837992 -1.272197 1.210736 0.827233 5.087200 -6.515622 0.430443 -16.283311 -52.697461 -1.046480 -32.633182 -3.203453 0.000000 0.000000 0.000000 -3.067977 -0.146172 0.554096 20.735756 -6.940447 -13.042805 3.216384 3.635264 -62.372085 -0.103613 11.282607 2.867706 0.000000 0.000000 0.000000 
-3.378212 80.574135 41.626328 179.998297 2.966576 179.987560 -4.061392 -1.131729 11.561666 -5.197502 -0.914070 -25.236559 8.615520 5.881636 27.172757 3.280383 -6.896320 -12.871069 0.000000 0.000000 0.000000 -0.867079 -1.794014 11.666802 0.182274 -2.465013 -26.477399 -0.592478 4.219816 32.568978 6.424405 3.444918 -11.665481 0.000000 0.000000 0.000000 2.222631 1.205447 0.452036 -5.138114 0.667595 -0.881592 -0.629589 -2.937909 2.668504 0.001788 -0.040867 -0.033319 -0.784866 -1.966586 4.023075 -5.263901 4.166717 -9.793192 0.000000 0.000000 0.000000 0.760790 -1.182291 1.288702 0.703744 5.200041 -6.478416 0.525301 -16.088459 -52.674258 -1.064570 -32.373123 -3.046676 0.000000 0.000000 0.000000 -3.122218 -0.092583 0.698340 20.864787 -6.903315 -13.128863 3.262122 3.552731 -62.859979 0.055043 11.546152 3.002219 0.000000 0.000000 0.000000 
-3.388812 80.566582 41.545364 179.967329 3.178342 179.981891 -4.189673 -1.096180 11.574604 -5.185102 -0.733025 -25.246336 8.614365 5.703675 27.284166 3.400100 -6.767206 -12.991277 0.000000 0.000000 0.000000 -0.970126 -1.768680 11.682920 0.200281 -2.377775 -26.407055 -0.592275 4.192726 32.403643 6.471051 3.484240 -11.732760 0.000000 0.000000 0.000000 2.177711 1.265571 0.505593 -5.041540 0.606302 -1.057718 -0.656800 -2.861916 2.703900 0.014369 0.010421 -0.034579 -0.868605 -1.978597 4.065541 -5.222970 3.956620 -9.691425 0.000000 0.000000 0.000000 0.699229 -1.256098 1.366593 0.638450 5.141991 -6.474360 0.588351 -15.884414 -52.645674 -1.037071 -32.257918 -3.080499 0.000000 0.000000 0.000000 -3.208794 -0.126393 0.683037 20.916942 -7.060228 -13.112619 3.463020 3.263919 -63.355537 0.169015 11.904291 3.101157 0.000000 0.000000 0.000000 
-3.415445 80.567307 41.459511 179.934790 3.448674 179.946634 -4.252127 -1.088492 11.576305 -5.225522 -0.651266 -25.222780 8.643534 5.696849 27.352041 3.505689 -6.682897 -13.065856 0.000000 0.000000 0.000000 -1.065515 -1.763834 11.695658 0.203549 -2.281890 -26.220316 -0.578995 4.237974 32.207887 6.559609 3.547044 -11.741569 0.000000 0.000000 0.000000 2.143029 1.252789 0.539863 -4.921048 0.511300 -1.224271 -0.687662 -2.824855 2.751178 -0.005609 -0.002507 -0.013616 -0.876879 -1.888577 4.086759 -5.185139 3.845466 -9.520807 0.000000 0.000000 0.000000 0.677278 -1.133200 1.428324 0.587562 5.263034 -6.393305 0.558347 -15.872229 -52.568756 -1.010515 -32.188100 -3.009038 0.000000 0.000000 0.000000 -3.210782 -0.015229 0.700379 20.952947 -7.147977 -13.063940 3.633263 2.992202 -63.716239 0.210347 12.252007 3.198260 0.000000 0.000000 0.000000 
-3.449246 80.573112 41.355885 179.974487 3.609646 179.966933 -4.323801 -1.108231 11.537912 -5.234834 -0.551078 -25.157161 8.708207 5.633539 27.490861 3.588108 -6.644467 -13.138416 0.000000 0.000000 0.000000 -1.154780 -1.825035 11.645766 0.241150 -2.103741 -26.039172 -0.557850 4.238297 31.977283 6.640717 3.585919 -11.730778 0.000000 0.000000 0.000000 2.110012 1.206513 0.517033 -4.769324 0.436649 -1.396906 -0.665759 -2.777101 2.785431 0.016310 -0.002479 -0.038021 -0.927716 -1.856115 4.180736 -5.147969 3.797376 -9.367602 0.000000 0.000000 0.000000 0.664059 -1.164862 1.445160 0.577723 5.363174 -6.364967 0.326032 -15.764930 -52.413277 -0.963249 -32.248964 -2.876043 0.000000 0.000000 0.000000 -3.260980 0.047619 0.802148 21.057992 -7.251822 -12.998224 3.669347 2.776169 -64.328176 0.314512 12.440936 3.390111 0.000000 0.000000 0.000000 
-3.486667 80.575638 41.239159 179.962576 3.734760 179.982656 -4.321925 -1.204383 11.479627 -5.340103 -0.461321 -25.074388 8.760981 5.541514 27.577019 3.686939 -6.561114 -13.187371 0.000000 0.000000 0.000000 -1.232833 -1.857592 11.600115 0.265341 -2.063138 -25.814449 -0.541835 4.249334 31.848930 6.739529 3.628593 -11.738887 0.000000 0.000000 0.000000 2.021602 1.117431 0.475320 -4.652602 0.352352 -1.583156 -0.624938 -2.769849 2.808804 0.038595 -0.057057 -0.034343 -0.909215 -1.905969 4.218962 -5.124450 3.537653 -9.200036 0.000000 0.000000 0.000000 0.669308 -0.912389 1.492926 0.528531 5.291907 -6.430300 0.068103 -15.687495 -52.301982 -0.977470 -32.194646 -2.621006 0.000000 0.000000 0.000000 -3.212899 0.179444 0.915732 21.017035 -7.308059 -12.819759 3.804570 2.619972 -64.972127 0.363863 12.529088 3.522809 0.000000 0.000000 0.000000 
-3.527828 80.579803 41.135189 179.964351 3.735033 179.943670 -4.522455 -1.129287 11.426128 -5.140481 -0.433630 -24.990438 8.765802 5.613595 27.731379 3.700586 -6.583785 -13.337133 0.000000 0.000000 0.000000 -1.263349 -1.880372 11.557594 0.247449 -2.024957 -25.583558 -0.554480 4.287427 31.761472 6.781166 3.591362 -11.778832 0.000000 0.000000 0.000000 1.967982 1.110179 0.518405 -4.528641 0.390530 -1.739159 -0.565431 -2.657776 2.844969 0.005604 0.005996 -0.002572 -0.858298 -1.690345 4.241662 -4.993909 3.292983 -8.881663 0.000000 0.000000 0.000000 0.728125 -0.950855 1.548615 0.675159 5.189048 -6.272232 -0.414708 -15.724856 -52.411211 -0.789168 -32.115782 -2.428871 0.000000 0.000000 0.000000 -3.153025 0.088185 0.940108 21.013383 -7.336126 -12.304463 3.856112 2.407218 -65.307673 0.315190 12.491948 3.467756 0.000000 0.000000 0.000000 
-3.563488 80.574043 41.026447 -179.971072 3.708613 179.883905 -4.491357 -1.098518 11.441563 -5.130868 -0.324134 -24.864332 8.750079 5.663375 27.852135 3.664743 -6.635045 -13.445460 0.000000 0.000000 0.000000 -1.200715 -1.856825 11.514766 0.199224 -1.878790 -25.394348 -0.589324 4.242826 31.760677 6.828481 3.543928 -11.876169 0.000000 0.000000 0.000000 1.943259 1.090688 0.622392 -4.389476 0.421614 -1.848447 -0.493428 -2.620342 2.871653 -0.030794 0.010610 -0.051725 -0.745670 -1.605944 4.336660 -4.874298 2.953547 -8.634558 0.000000 0.000000 0.000000 0.827360 -0.873471 1.669115 0.685025 5.040642 -6.278503 -1.164994 -15.557100 -52.414687 -0.742580 -32.045793 -1.968017 0.000000 0.000000 0.000000 -3.067163 0.236670 0.999726 20.944681 -7.323294 -11.885016 4.073014 2.206732 -65.920512 0.421026 12.446114 3.473473 0.000000 0.000000 0.000000 
-3.591171 80.566193 40.927883 -179.911636 3.621064 179.977739 -4.514902 -1.200845 11.329951 -5.079375 -0.202272 -24.889325 8.761733 5.740670 28.017013 3.626042 -6.768076 -13.576964 0.000000 0.000000 0.000000 -1.120328 -1.883851 11.447599 0.152640 -1.834632 -25.362075 -0.627318 4.272551 31.858359 6.874038 3.461360 -11.968063 0.000000 0.000000 0.000000 1.961798 1.025827 0.675413 -4.242002 0.440018 -1.953389 -0.407816 -2.666131 2.914073 -0.014856 -0.040109 -0.022494 -0.693787 -1.580262 4.426360 -4.741039 2.902854 -8.337393 0.000000 0.000000 0.000000 0.895881 -0.804551 1.704515 0.663077 4.948101 -6.140758 -2.413978 -15.075602 -52.351689 -0.631166 -32.337449 -1.500352 0.000000 0.000000 0.000000 -2.984391 0.281887 1.159150 20.727613 -7.028116 -11.332748 4.520264 2.231762 -66.712029 0.567915 12.790262 3.465284 0.000000 0.000000 0.000000 
-3.611256 80.568306 40.851852 -179.983517 3.669132 179.929080 -4.551069 -1.269378 11.381500 -5.113567 -0.055124 -24.847381 8.845426 5.893176 28.080134 3.564099 -6.872243 -13.616859 0.000000 0.000000 0.000000 -1.053824 -2.035436 11.451625 0.002373 -1.833705 -25.349877 -0.643910 4.458911 31.935349 6.974068 3.423231 -12.059387 0.000000 0.000000 0.000000 1.908717 0.976787 0.805163 -4.100867 0.580878 -1.930363 -0.338117 -2.653944 3.016970 -0.017051 -0.008640 0.023670 -0.610618 -1.592423 4.460715 -4.547236 2.838513 -8.019971 0.000000 0.000000 0.000000 0.941120 -0.879415 1.784027 0.588545 4.803770 -5.817762 -4.395553 -14.286729 -52.211472 -0.563910 -33.468070 -1.068659 0.000000 0.000000 0.000000 -2.926475 0.209075 1.122929 20.434481 -6.801041 -10.529933 5.577090 2.269790 -66.780412 0.605232 13.857781 3.222445 0.000000 0.000000 0.000000 
